<svg width="220" height="21" viewBox="0 0 220 21" fill="none" xmlns="http://www.w3.org/2000/svg">
<path d="M9.528 21H6.04C4.35467 21 3.05333 20.552 2.136 19.656C1.21867 18.76 0.76 17.4693 0.76 15.784V5.64C0.76 3.95467 1.21867 2.664 2.136 1.768C3.05333 0.872 4.35467 0.424 6.04 0.424H9.528C11.192 0.424 12.4827 0.882666 13.4 1.8C14.3387 2.696 14.808 3.976 14.808 5.64V7.144C14.808 7.61333 14.5733 7.848 14.104 7.848H11.416C10.968 7.848 10.744 7.61333 10.744 7.144V5.832C10.744 5.14933 10.5947 4.66933 10.296 4.392C10.0187 4.09333 9.53867 3.944 8.856 3.944H6.68C6.01867 3.944 5.53867 4.09333 5.24 4.392C4.96267 4.66933 4.824 5.14933 4.824 5.832V15.592C4.824 16.2747 4.96267 16.7653 5.24 17.064C5.53867 17.3413 6.01867 17.48 6.68 17.48H8.856C9.53867 17.48 10.0187 17.3413 10.296 17.064C10.5947 16.7653 10.744 16.2747 10.744 15.592V14.28C10.744 13.8107 10.968 13.576 11.416 13.576H14.104C14.5733 13.576 14.808 13.8107 14.808 14.28V15.784C14.808 17.448 14.3387 18.7387 13.4 19.656C12.4827 20.552 11.192 21 9.528 21ZM21.6908 21H18.9708C18.5228 21 18.2988 20.776 18.2988 20.328V1.096C18.2988 0.647999 18.5228 0.424 18.9708 0.424H26.5868C28.2508 0.424 29.5521 0.882666 30.4908 1.8C31.4294 2.71733 31.8988 4.008 31.8988 5.672V8.168C31.8988 10.5787 30.9494 12.1787 29.0508 12.968V13.096L32.4748 20.232C32.6668 20.744 32.4854 21 31.9308 21H29.3388C28.9548 21 28.6774 20.9573 28.5068 20.872C28.3361 20.7867 28.1974 20.6053 28.0908 20.328L24.8908 13.416H22.7468C22.4908 13.416 22.3628 13.5333 22.3628 13.768V20.328C22.3628 20.776 22.1388 21 21.6908 21ZM22.7148 10.152H25.8508C26.5334 10.152 27.0348 10.0133 27.3548 9.736C27.6748 9.43733 27.8348 8.968 27.8348 8.328V5.832C27.8348 5.17067 27.6748 4.69067 27.3548 4.392C27.0348 4.09333 26.5334 3.944 25.8508 3.944H22.7148C22.4801 3.944 22.3628 4.06133 22.3628 4.296V9.8C22.3628 10.0347 22.4801 10.152 22.7148 10.152ZM46.9348 21H36.4708C36.0228 21 35.7988 20.776 35.7988 20.328V1.096C35.7988 0.647999 36.0228 0.424 36.4708 0.424H46.9348C47.3614 0.424 47.5748 0.647999 47.5748 1.096V3.272C47.5748 3.72 47.3614 3.944 46.9348 3.944H40.2468C39.9908 3.944 39.8628 4.06133 39.8628 4.296V8.456C39.8628 8.69067 39.9908 8.808 40.2468 8.808H45.7188C46.1668 8.808 46.3908 9.032 46.3908 9.48V11.656C46.3908 12.104 46.1668 12.328 45.7188 12.328H40.2468C39.9908 12.328 39.8628 12.4453 39.8628 12.68V17.128C39.8628 17.3627 39.9908 17.48 40.2468 17.48H46.9348C47.3614 17.48 47.5748 17.704 47.5748 18.152V20.328C47.5748 20.776 47.3614 21 46.9348 21ZM53.2552 21H50.1833C49.7993 21 49.6713 20.776 49.7993 20.328L54.8553 1.096C55.0046 0.647999 55.3246 0.424 55.8153 0.424H60.0713C60.6046 0.424 60.9246 0.647999 61.0313 1.096L66.0873 20.328C66.2153 20.776 66.0873 21 65.7033 21H62.6313C62.3966 21 62.2366 20.9573 62.1513 20.872C62.0659 20.7653 62.0019 20.584 61.9593 20.328L61.0633 16.808H54.8233L53.9273 20.328C53.8846 20.584 53.8099 20.7653 53.7033 20.872C53.6179 20.9573 53.4686 21 53.2552 21ZM57.8953 4.296L55.5913 13.544H60.3273L58.0233 4.296H57.8953ZM75.2917 21H72.6038C72.1344 21 71.8998 20.776 71.8998 20.328V4.296C71.8998 4.06133 71.7824 3.944 71.5477 3.944H67.8997C67.4518 3.944 67.2278 3.72 67.2278 3.272V1.096C67.2278 0.647999 67.4518 0.424 67.8997 0.424H79.9958C80.4438 0.424 80.6678 0.647999 80.6678 1.096V3.272C80.6678 3.72 80.4438 3.944 79.9958 3.944H76.3478C76.0918 3.944 75.9638 4.06133 75.9638 4.296V20.328C75.9638 20.776 75.7398 21 75.2917 21ZM86.5033 21H83.7833C83.3353 21 83.1113 20.776 83.1113 20.328V1.096C83.1113 0.647999 83.3353 0.424 83.7833 0.424H86.5033C86.9513 0.424 87.1753 0.647999 87.1753 1.096V8.616C87.1753 8.85067 87.3033 8.968 87.5593 8.968H92.9673C93.2019 8.968 93.3193 8.85067 93.3193 8.616V1.096C93.3193 0.647999 93.5433 0.424 93.9913 0.424H96.7113C97.1593 0.424 97.3833 0.647999 97.3833 1.096V20.328C97.3833 20.776 97.1593 21 96.7113 21H93.9913C93.5433 21 93.3193 20.776 93.3193 20.328V12.84C93.3193 12.6053 93.2019 12.488 92.9673 12.488H87.5593C87.3033 12.488 87.1753 12.6053 87.1753 12.84V20.328C87.1753 20.776 86.9513 21 86.5033 21ZM112.077 0.424H114.765C115.234 0.424 115.469 0.637333 115.469 1.064V15.784C115.469 17.448 114.999 18.7387 114.061 19.656C113.143 20.552 111.853 21 110.189 21H106.669C104.983 21 103.682 20.552 102.765 19.656C101.847 18.76 101.389 17.4693 101.389 15.784V1.096C101.389 0.647999 101.613 0.424 102.061 0.424H104.781C105.229 0.424 105.453 0.647999 105.453 1.096V15.592C105.453 16.2747 105.591 16.7653 105.869 17.064C106.167 17.3413 106.647 17.48 107.309 17.48H109.517C110.199 17.48 110.679 17.3413 110.957 17.064C111.255 16.7653 111.405 16.2747 111.405 15.592V1.096C111.405 0.647999 111.629 0.424 112.077 0.424ZM118.943 15.752V15.112C118.943 14.664 119.167 14.44 119.615 14.44H122.335C122.783 14.44 123.007 14.664 123.007 15.112V15.368C123.007 16.1787 123.167 16.7333 123.487 17.032C123.807 17.3307 124.394 17.48 125.247 17.48H126.751C127.583 17.48 128.159 17.32 128.479 17C128.82 16.68 128.991 16.0827 128.991 15.208V14.824C128.991 14.2053 128.735 13.736 128.223 13.416C127.732 13.0747 127.114 12.872 126.367 12.808C125.62 12.744 124.81 12.6267 123.935 12.456C123.082 12.264 122.282 12.0293 121.535 11.752C120.788 11.4533 120.159 10.888 119.647 10.056C119.156 9.20267 118.911 8.11467 118.911 6.792V5.672C118.911 4.008 119.38 2.71733 120.319 1.8C121.258 0.882666 122.559 0.424 124.223 0.424H127.423C129.108 0.424 130.42 0.882666 131.359 1.8C132.298 2.71733 132.767 4.008 132.767 5.672V6.28C132.767 6.728 132.543 6.952 132.095 6.952H129.375C128.927 6.952 128.703 6.728 128.703 6.28V6.088C128.703 5.256 128.543 4.69067 128.223 4.392C127.903 4.09333 127.316 3.944 126.463 3.944H125.215C124.34 3.944 123.743 4.11467 123.423 4.456C123.124 4.776 122.975 5.416 122.975 6.376V6.984C122.975 7.98667 123.85 8.56267 125.599 8.712C127.412 8.86133 129.023 9.224 130.431 9.8C131.178 10.12 131.796 10.696 132.287 11.528C132.799 12.3387 133.055 13.384 133.055 14.664V15.752C133.055 17.416 132.586 18.7067 131.647 19.624C130.708 20.5413 129.407 21 127.743 21H124.255C122.591 21 121.29 20.5413 120.351 19.624C119.412 18.7067 118.943 17.416 118.943 15.752Z" fill="white"/>
<path d="M151.041 0.424H154.625C154.988 0.424 155.169 0.605333 155.169 0.967999V20.456C155.169 20.8187 154.988 21 154.625 21H152.641C152.278 21 152.097 20.8187 152.097 20.456V4.296H151.969L147.809 16.008C147.681 16.3493 147.446 16.52 147.105 16.52H145.057C144.737 16.52 144.513 16.3493 144.385 16.008L140.129 4.264H140.001V20.456C140.001 20.6693 139.958 20.8187 139.873 20.904C139.809 20.968 139.67 21 139.457 21H137.505C137.142 21 136.961 20.8187 136.961 20.456V0.967999C136.961 0.605333 137.142 0.424 137.505 0.424H141.089C141.324 0.424 141.494 0.541333 141.601 0.775999L145.985 13.128H146.145L150.561 0.775999C150.604 0.541333 150.764 0.424 151.041 0.424ZM164.924 18.28H167.708C169.265 18.28 170.044 17.4907 170.044 15.912V5.512C170.044 3.93333 169.265 3.144 167.708 3.144H164.924C163.388 3.144 162.62 3.93333 162.62 5.512V15.912C162.62 17.4907 163.388 18.28 164.924 18.28ZM168.188 21H164.476C162.897 21 161.671 20.5627 160.796 19.688C159.943 18.8133 159.516 17.5973 159.516 16.04V5.384C159.516 3.80533 159.943 2.58933 160.796 1.736C161.671 0.861333 162.897 0.424 164.476 0.424H168.188C169.767 0.424 170.993 0.861333 171.868 1.736C172.743 2.58933 173.18 3.80533 173.18 5.384V16.04C173.18 17.5973 172.743 18.8133 171.868 19.688C170.993 20.5627 169.767 21 168.188 21ZM184.98 21H181.812C181.45 21 181.226 20.8187 181.14 20.456L175.828 1.032C175.7 0.626666 175.86 0.424 176.308 0.424H178.58C178.922 0.424 179.124 0.605333 179.188 0.967999L183.316 17.672H183.444L187.54 0.967999C187.626 0.605333 187.839 0.424 188.18 0.424H190.42C190.868 0.424 191.039 0.626666 190.932 1.032L185.588 20.456C185.503 20.8187 185.3 21 184.98 21ZM197.163 0.967999V20.456C197.163 20.8187 196.981 21 196.619 21H194.603C194.24 21 194.059 20.8187 194.059 20.456V0.967999C194.059 0.605333 194.24 0.424 194.603 0.424H196.619C196.981 0.424 197.163 0.605333 197.163 0.967999ZM212.776 21H202.536C202.174 21 201.992 20.8187 201.992 20.456V0.967999C201.992 0.605333 202.174 0.424 202.536 0.424H212.776C213.118 0.424 213.288 0.605333 213.288 0.967999V2.6C213.288 2.96267 213.118 3.144 212.776 3.144H205.48C205.224 3.144 205.096 3.25067 205.096 3.464V8.872C205.096 9.08533 205.224 9.192 205.48 9.192H211.656C212.04 9.192 212.232 9.37333 212.232 9.736V11.368C212.232 11.7307 212.04 11.912 211.656 11.912H205.48C205.224 11.912 205.096 12.0187 205.096 12.232V17.928C205.096 18.1627 205.224 18.28 205.48 18.28H212.776C213.118 18.28 213.288 18.4613 213.288 18.824V20.456C213.288 20.8187 213.118 21 212.776 21ZM219.831 16.552V20.456C219.831 20.8187 219.661 21 219.319 21H217.143C216.781 21 216.599 20.8187 216.599 20.456V16.552C216.599 16.2107 216.781 16.04 217.143 16.04H219.319C219.661 16.04 219.831 16.2107 219.831 16.552Z" fill="#F3722D"/>
</svg>
